<svg xmlns="http://www.w3.org/2000/svg" viewBox="0 0 446.88 156.39"><g id="Camada_2" data-name="Camada 2"><g id="Camada_1-2" data-name="Camada 1"><path d="M115,52.84V114.3a11.13,11.13,0,0,1-11.13,11.14H83.5a4.28,4.28,0,0,1-3.61-6.59l.27-.44C88.07,106,96.24,93.22,94.31,72.46a34.87,34.87,0,0,0-10.85-21.8A38.19,38.19,0,0,0,60.94,40.2c-.74-.07-1.48-.12-2.22-.14-.53,0-1.07,0-1.6,0A36.5,36.5,0,0,0,20.66,73.58C18.89,93.7,27.73,107,35.53,118.72l0,.06A4.28,4.28,0,0,1,32,125.44H11.13A11.14,11.14,0,0,1,0,114.3V52.84A17.11,17.11,0,0,1,6.34,39.51L52.86,1.65a7.39,7.39,0,0,1,9.31,0l9.7,7.89A6.94,6.94,0,0,1,78.8,2.7h12a6.94,6.94,0,0,1,6.94,6.93V30.57l11,8.94A17.11,17.11,0,0,1,115,52.84Z" style="fill:#fff"/><path d="M44.07,85c-.45-.26-.88-.52-1.3-.75a1.13,1.13,0,0,0-1.64.83c-.34,2.42.59,4.74,1.5,7,.28.72.56,1.41.78,2.08.94,2.8,1.86,5.66,2.75,8.43S48,108.32,49,111.24c.19.54.34,1.18.5,1.85.55,2.31,1.23,5.17,3.85,6.26a1.09,1.09,0,0,0,1-.1,1.12,1.12,0,0,0,.5-.92c0-3.74-1.36-7.22-2.69-10.59-.51-1.28-1-2.6-1.46-3.9-.7-2.11-1.34-4.33-2-6.47s-1.26-4.31-2-6.44l.3,0a10.91,10.91,0,0,0,2.63.18,7.7,7.7,0,0,0,2.34-.64,5.14,5.14,0,0,1,1.66-.47h0a4.84,4.84,0,0,1,1.78.63,6.78,6.78,0,0,0,2.66.86,5.85,5.85,0,0,0,2.62-.64,4.76,4.76,0,0,1,1.58-.48,11.91,11.91,0,0,1,2.8.32,16.41,16.41,0,0,0,3,.37A7.29,7.29,0,0,0,69.43,91c-.61,1.91-1.24,3.82-1.86,5.69-.73,2.2-1.48,4.49-2.22,6.79-.39,1.24-.84,2.52-1.27,3.75-1.26,3.58-2.57,7.28-2.87,11a1.11,1.11,0,0,0,.42,1,1.13,1.13,0,0,0,.7.25,1.19,1.19,0,0,0,.32,0c2.64-.8,3.62-4.12,4.41-6.79.14-.48.28-.94.42-1.37,1.12-3.4,2.25-7.07,3.34-10.62,1.54-5,3.14-10.25,4.83-15a1.1,1.1,0,0,0-.11-1,1.13,1.13,0,0,0-.85-.51H74.4a7.71,7.71,0,0,0-3.84,1.48,8.06,8.06,0,0,1-4,1.54,4.21,4.21,0,0,1-.62,0c.05-.13.11-.26.17-.4a5.74,5.74,0,0,0,.66-2.59C66.72,80.93,64.54,79,62.56,79c-1.69,0-3,1.26-3.55,3.36a6.54,6.54,0,0,0,.65,4.72A9.1,9.1,0,0,1,57.72,87a8.77,8.77,0,0,0,.5-5.79,3.38,3.38,0,0,0-2.29-2.28,3.68,3.68,0,0,0-4.22,1.88,7.21,7.21,0,0,0-.48,5.8,4.29,4.29,0,0,1-1.89.43C47.53,87,45.69,86,44.07,85Z" style="fill:#fff"/><path d="M83.35,118.41l-1.27,2-.52.87c-.4.71-.91,1.57-1.49,2.45a4.26,4.26,0,0,1-.18-4.88l.27-.44C88.07,106,96.24,93.22,94.31,72.46a34.87,34.87,0,0,0-10.85-21.8A38.19,38.19,0,0,0,60.94,40.2c-.73-.07-1.48-.11-2.22-.14.53,0,1.06,0,1.59,0,1.27,0,2.55.06,3.83.18A38.17,38.17,0,0,1,86.65,50.66,34.87,34.87,0,0,1,97.5,72.46C99.44,93.22,91.26,106,83.35,118.41Z" style="fill:#b3b3b3"/><path d="M46.59,150.77c.78,3.18,5.37,5.62,10.93,5.62s10.15-2.44,10.93-5.62Z" style="fill:#fff"/><path d="M74.69,132.51a3.85,3.85,0,0,1-1.14,2.75,3.9,3.9,0,0,1-2.76,1.15H44.25a3.91,3.91,0,1,1,0-7.81H70.79A3.9,3.9,0,0,1,74.69,132.51Z" style="fill:#fff"/><path d="M74.69,143.22a3.89,3.89,0,0,1-3.9,3.91H44.25a3.91,3.91,0,0,1,0-7.81H70.79A3.9,3.9,0,0,1,74.69,143.22Z" style="fill:#fff"/><path d="M171.68,73.08,168.2,47.47,156.41,73.15h-3.62L141,47.48l-3.42,25.6H125.16l6.73-44.48h12.23L154.6,52.8l10.54-24.2h12.23L184,73.08Z" style="fill:#fff"/><path d="M187.31,50.84c0-13.59,10.2-23.36,24.5-23.36s24.43,9.73,24.43,23.36S226.07,74.2,211.81,74.2,187.31,64.43,187.31,50.84Zm24.5,12c6.77,0,11.67-5,11.67-12s-4.9-12-11.67-12-11.74,5-11.74,12,5,12,11.74,12Z" style="fill:#fff"/><path d="M259.19,59.47h-4.44V73.08H242.49V28.6h19.28c9.59,0,16.54,6.45,16.54,15.74a14.25,14.25,0,0,1-7.06,12.56l8.83,16.18H266.41Zm-4.44-10.32h5.59c3.43,0,5.4-2.06,5.4-4.84s-2-4.82-5.4-4.82h-5.59Z" style="fill:#fff"/><path d="M312.3,65.86H296.53l-2.46,7.22H280.94L298.41,28.6h12l17.85,44.48H314.75Zm-7.91-23.37-4.87,13.78h9.79Z" style="fill:#fff"/><path d="M373.48,50.8c0,13-9.53,22.28-23,22.28h-18V28.6h18C364,28.6,373.48,37.81,373.48,50.8Zm-12.56,0c0-6.59-4.39-11-11-11h-5.11v22h5.11C356.53,61.86,360.92,57.37,360.92,50.8Z" style="fill:#fff"/><path d="M379.85,28.6h12.41V73.08H379.85Z" style="fill:#fff"/><path d="M427.92,65.86H412.16l-2.47,7.22H396.56L414,28.6h12l17.86,44.48h-13.5ZM420,42.49l-4.88,13.78h9.79Z" style="fill:#fff"/><path d="M144.14,121.71c-11,0-19.14-8.11-19.14-18.88s8.18-18.93,19.14-18.93c9.43,0,16.74,6.22,18.2,15.35H152.29a8.5,8.5,0,0,0-8.13-6.09c-5.1,0-8.84,4.1-8.84,9.67s3.74,9.59,8.84,9.59a8.28,8.28,0,0,0,8.14-6.6h10.14a18,18,0,0,1-18.3,15.89Z" style="fill:#fff"/><path d="M191.86,109.79h-3.59v11h-9.92v-36H194c7.76,0,13.39,5.21,13.39,12.73a11.53,11.53,0,0,1-5.72,10.17l7.15,13.09H197.7Zm-3.59-8.36h4.53c2.77,0,4.37-1.67,4.37-3.92s-1.6-3.89-4.37-3.89h-4.53Z" style="fill:#fff"/><path d="M224.28,84.81h10v36h-10Z" style="fill:#fff"/><path d="M273.11,115H260.35l-2,5.85H247.73l14.14-36h9.7l14.45,36H275.1ZM266.71,96l-3.94,11.15h7.92Z" style="fill:#fff"/><path d="M325,93.73h-9.77V120.8h-10V93.73h-9.78V84.81H325Z" style="fill:#fff"/><path d="M339.16,84.81h10v36h-10Z" style="fill:#fff"/><path d="M399.72,84.81l-13.78,36h-9.23l-14.08-36H374l7.35,22.37,7.17-22.37Z" style="fill:#fff"/><path d="M434,115H421.21l-2,5.85H408.59l14.14-36h9.7l14.45,36H436ZM427.57,96l-3.94,11.15h7.92Z" style="fill:#fff"/></g></g></svg>